<svg version="1" xmlns="http://www.w3.org/2000/svg" width="346.667" height="346.667" viewBox="0 0 260.000000 260.000000"><path d="M136.5 29.9c-4.2 1.9-10.6 8.3-10.4 10.4 0 .9.2.9.6-.1.2-.6 1-1.2 1.6-1.2.6 0-.2 1.3-1.8 3-3.2 3.4-4.3 8.5-4.4 21.6-.1 5.3-.8 10.1-2.2 14.3-1.2 3.4-2 6.3-1.8 6.4 2.2 1.3 11.4 3.7 13.8 3.7 1.8 0 4.1.5 5.3 1.1 2.6 1.4 3.5.4 1.4-1.7-.9-.9-1.4-1.9-1.1-2.3.4-.3 1.3.3 2 1.3.8 1 2.7 1.9 4.4 2 2.1.1 2.7.4 2 1.3-1.2 1.4.3 2.5 2.4 1.7 1.3-.5 1.4-3.7.9-22.9-.3-15.3-.1-24.2.7-28.4 1-5.1 1-6.5-.4-9.1-1.3-2.5-2.1-3-5.3-3-2 0-5.5.9-7.7 1.9zm7.3 14.6c.3 3.6-1.1 6-3 4.9-1-.6-1.1-7.8-.1-8.8 1.5-1.4 2.8.2 3.1 3.9zm1.8 31.8c.5 9.2.5 9.2-1.4 7-1.5-1.8-2-3.8-2-9.9-.2-14.1 2.6-11.7 3.4 2.9zM122.3 126.1c-2.9 1.1-2.9 2.3.1 4.6 2.2 1.7 2.2 2 .8 3-1.6 1-1.6 1.2.1 3 1.5 1.6 1.9 1.6 2.7.3.5-.8 1-2.9 1-4.7 0-1.7.3-4 .6-5 .4-1.4.4-1.5-.4-.4s-1.1 1.1-1.8-.2c-.7-1-1.5-1.2-3.1-.6zM115.5 128c-.9 1.5-.1 2.3 2.1 1.8 1.5-.3 1.6-.4.1-1.6-1.1-.9-1.7-1-2.2-.2zM120 143.2c0 .7-.3 2.4-.6 3.8-.6 2.4-.6 2.5.9.5 1.8-2.2 2.2-5.5.7-5.5-.5 0-1 .6-1 1.2z"/><path d="M107 151.2c-3.7 6-3.7 7.8-.7 27.8 1.5 9.7 1.1 21.8-.8 21.2-1.5-.5-3.4 9.6-3.5 18.9 0 18.7 6.6 25.6 23.5 24.4 3.9-.3 10.4-.7 14.7-.9 4.2-.3 8.5-.9 9.6-1.5 1.2-.6 3.1-1.1 4.5-1.1 1.3 0 3.3-1 4.4-2.2 4.4-4.8 4.6-6.1 3.3-20.6-.9-10.5-.9-14.9.1-20 .8-4.3.9-9.5.4-15.6-.4-5-.8-12-.9-15.6-.1-7.7-3-13.7-6.2-13.1-1 .2-7.1.3-13.4.2-6.3-.1-14.3-.1-17.7 0-5.1 0-6.9-.4-10-2.5-2.1-1.4-4.1-2.6-4.5-2.6-.5 0-1.7 1.5-2.8 3.2zm42 11.7c0 .5-1.3 1.1-3 1.3-2.9.4-3.7-.1-2.3-1.5 1-1 5.3-.8 5.3.2z"/></svg>